<?xml version="1.0" encoding="iso-8859-1"?>
<!-- Uploaded to: SVG Repo, www.svgrepo.com, Generator: SVG Repo Mixer Tools -->
<!DOCTYPE svg PUBLIC "-//W3C//DTD SVG 1.1//EN" "http://www.w3.org/Graphics/SVG/1.1/DTD/svg11.dtd">
<svg fill="#000000" height="800px" width="800px" version="1.1" id="Capa_1" xmlns="http://www.w3.org/2000/svg" xmlns:xlink="http://www.w3.org/1999/xlink" 
	 viewBox="0 0 404.285 404.285" xml:space="preserve">
<path d="M390.397,176.494l13.889-19.641L295.293,79.777l-108.992,77.076l13.889,19.641l19.865-14.049v146.33h-44.117v-59.449
	c14.221-2.746,24.967-15.254,24.967-30.277c0-17.035-13.813-30.848-30.846-30.848c-17.037,0-30.848,13.813-30.848,30.848
	c0,15.025,10.744,27.533,24.969,30.277v59.449H81.084v-32.033l60.715-11.461l-2.223-11.77l-17.955,3.389l-1.777-9.414l-11.77,2.223
	l1.777,9.414l-68.854,12.998l-1.775-9.418l-11.77,2.221l1.775,9.418l-17.949,3.389l2.223,11.77l55.604-10.496v29.771H0v15.732
	h387.289v-15.732h-16.76v-146.33L390.397,176.494z M292.266,137.973c-0.012-0.102-0.014-0.201-0.014-0.305
	c0-1.664,1.35-3.016,3.012-3.016c0.014,0,0.025,0.002,0.029,0.002c0.008,0,0.016-0.002,0.027-0.002c1.666,0,3.016,1.352,3.016,3.016
	c0,0.104-0.008,0.203-0.018,0.305c12.787,1.682,13.037,18.826,13.037,33.631h-32.129
	C279.227,156.799,279.478,139.654,292.266,137.973z M300.705,173.887c-0.543,2.492-2.758,4.361-5.412,4.361
	s-4.871-1.869-5.414-4.361H300.705z M318.147,296.486h-45.703v-84.875h45.703V296.486z"/>
</svg>